# xmcd
#
# Track frame offsets:
#	150
#	18982
#	32487
#	51182
#	65745
#	87017
#	104390
#	119357
#	135315
#	149875
#	167945
#	184407
#
# Disc length: 2672 seconds
#
# Revision: 0
# Processed by: cddbd v1.5.2PL0 Copyright (c) Steve Scherf et al.
# Submitted via: EZCDAudioConverter 3.1.0.1
#
DISCID=ac0a6e0c
DTITLE=Wando - Bem Vindo
DYEAR=1980
DGENRE=MPB
TTITLE0=Duas lágrimas
TTITLE1=A mosca e a aranha
TTITLE2=Quatro estações sem você
TTITLE3=Dança inocente
TTITLE4=Bem vindo
TTITLE5=Tirerepá
TTITLE6=Maior desejo
TTITLE7=Candura
TTITLE8=Pra perfumar a dor
TTITLE9=Estás em mim
TTITLE10=Cirandaê
TTITLE11=Ponto
EXTD=
EXTT0=
EXTT1=
EXTT2=
EXTT3=
EXTT4=
EXTT5=
EXTT6=
EXTT7=
EXTT8=
EXTT9=
EXTT10=
EXTT11=
PLAYORDER=
